# xmcd
#
# Track frame offsets: 
#        150
#        10975
#        23230
#        34763
#        45403
#        58193
#        70488
#        84438
#        96440
#        109683
#        122018
#        134298
#
# Disc length: 1937 seconds
#
# Revision: 1
# Processed by: cddbd v1.5.2PL0 Copyright (c) Steve Scherf et al.
# Submitted via: ExactAudioCopy v1.0b3
#
DISCID=9f078f0c
DTITLE=Brian Hyland - Greatest Hits
DYEAR=1992
DGENRE=Oldies
TTITLE0=Itsy bitsy teenie weenie yellow polka dot bikini  (19)60
TTITLE1=Sealed with a kiss (1962)
TTITLE2=Holiday for clowns (1967)
TTITLE3=Warmed over kisses (left over love) (1962)
TTITLE4=Ginny come lately (1962)
TTITLE5=The joker went wild (1966)
TTITLE6=Let me belong to you (1961)
TTITLE7=Run, run, look and see (1966)
TTITLE8=Tragedy (1967)
TTITLE9=I'm afraid to go home (1963)
TTITLE10=Get the message (1967)
TTITLE11=Hung up in your eyes (1967)
EXTD=
EXTT0=
EXTT1=
EXTT2=
EXTT3=
EXTT4=
EXTT5=
EXTT6=
EXTT7=
EXTT8=
EXTT9=
EXTT10=
EXTT11=
PLAYORDER=
